<?xml version="1.0" standalone="no"?>
<!DOCTYPE svg PUBLIC "-//W3C//DTD SVG 20010904//EN"
 "http://www.w3.org/TR/2001/REC-SVG-20010904/DTD/svg10.dtd">
<svg version="1.0" xmlns="http://www.w3.org/2000/svg"
 width="762.000000pt" height="762.000000pt" viewBox="0 0 762.000000 762.000000"
 preserveAspectRatio="xMidYMid meet">
<metadata>
Created by potrace 1.11, written by Peter Selinger 2001-2013
</metadata>
<g transform="translate(0.000000,762.000000) scale(0.100000,-0.100000)"
fill="#000000" stroke="none">
<path d="M2 4988 c3 -2438 6 -2715 27 -2611 2 10 8 21 15 25 6 5 2 8 -11 8
-13 0 -23 5 -23 10 0 19 74 -2 93 -27 10 -12 27 -23 37 -23 10 0 22 -5 25 -10
4 -6 11 -8 16 -4 6 4 4 13 -6 24 -21 24 -28 60 -10 60 8 0 17 -5 20 -11 4 -6
13 -8 21 -5 10 4 12 -2 7 -26 -4 -22 -3 -29 5 -24 6 4 9 13 5 21 -3 9 1 15 10
15 25 0 31 20 11 35 -22 17 -15 19 20 5 31 -12 32 -24 6 -58 -30 -37 -3 -51
28 -14 22 26 23 26 19 4 -4 -17 -1 -22 11 -20 9 2 17 -2 17 -9 0 -22 16 -27
21 -6 3 12 15 24 26 26 11 3 17 10 13 16 -3 6 -3 20 0 31 6 18 9 18 28 6 13
-8 30 -11 41 -7 14 5 16 10 8 15 -7 4 -11 19 -11 34 1 17 3 21 6 10 2 -10 11
-18 19 -18 17 0 16 -40 -1 -52 -5 -4 2 -8 17 -8 14 0 28 4 30 9 3 10 22 14 52
12 13 -1 17 -7 13 -20 -6 -24 2 -37 30 -45 25 -8 42 11 19 20 -20 8 -21 44 -1
44 8 0 15 -6 16 -12 0 -7 5 0 11 15 15 41 52 75 73 67 16 -6 14 -9 -13 -25
-18 -11 -32 -22 -32 -25 0 -3 11 -18 25 -35 19 -23 24 -26 25 -12 0 9 3 17 8
18 62 8 82 7 82 -7 0 -8 5 -12 10 -9 6 4 8 11 5 16 -11 17 12 9 30 -11 16 -18
20 -19 40 -6 17 11 25 12 34 3 10 -9 17 -7 32 12 13 16 19 19 19 8 0 -8 -6
-17 -13 -20 -9 -3 -9 -8 2 -18 8 -9 15 -10 17 -4 3 6 21 9 42 7 33 -4 35 -3
23 12 -20 24 -8 30 36 18 23 -6 30 -10 16 -11 -16 -1 -20 -6 -16 -22 3 -11 9
-17 12 -11 10 15 59 23 63 10 2 -6 10 -8 17 -4 15 9 -3 36 -25 36 -22 0 -36
36 -20 50 12 9 13 7 9 -9 -4 -15 -1 -21 11 -21 9 0 16 5 16 10 0 6 4 10 9 10
5 0 7 -9 4 -20 -4 -17 0 -20 25 -20 18 0 35 7 40 16 6 11 11 13 16 5 12 -18
36 -12 36 9 0 11 -3 20 -7 20 -5 0 -9 10 -9 23 -1 12 -7 70 -15 129 -22 177
13 394 87 540 13 26 24 51 24 55 0 5 -25 23 -54 41 -152 91 -340 263 -455 417
-223 298 -331 621 -331 992 0 187 19 325 65 478 86 283 214 495 425 705 132
131 258 222 425 304 152 75 267 116 420 148 96 20 138 23 330 23 190 0 234 -4
321 -23 227 -49 467 -154 644 -279 172 -123 347 -313 461 -502 l46 -76 129 -6
c219 -11 365 -39 547 -106 382 -139 699 -416 895 -782 l50 -94 144 -2 c522 -9
977 -295 1211 -760 100 -201 141 -379 141 -615 -1 -200 -36 -380 -104 -535
-24 -56 -32 -93 -20 -100 6 -3 15 4 20 17 10 22 10 22 7 -4 -3 -22 0 -28 14
-28 11 0 19 4 19 9 0 5 7 12 16 15 8 3 13 2 10 -3 -3 -5 1 -11 9 -15 8 -3 17
0 21 5 4 6 14 0 26 -14 19 -24 21 -24 38 -7 10 10 22 30 27 46 13 39 42 46 35
9 -2 -15 -11 -29 -18 -32 -7 -2 -10 -11 -8 -18 3 -7 -4 -16 -15 -20 -17 -5
-21 -15 -21 -46 0 -22 4 -38 9 -35 5 3 7 15 4 26 -4 14 0 20 11 20 9 0 16 -5
16 -12 0 -6 6 -3 14 7 12 16 14 17 22 3 7 -12 11 -13 20 -4 14 15 -7 48 -26
44 -7 -2 -14 2 -16 7 -3 7 12 11 35 10 22 0 39 -2 39 -5 -1 -3 4 -16 10 -30 6
-14 11 -19 11 -12 1 15 28 16 33 0 2 -6 10 -8 16 -4 16 10 15 29 0 23 -19 -6
-48 11 -48 28 0 18 16 20 26 4 4 -7 15 -1 29 17 24 30 45 26 45 -9 -1 -20 -2
-20 -11 -5 -5 10 -14 18 -19 18 -17 0 -11 -20 13 -44 15 -15 24 -36 25 -56 0
-18 4 -35 7 -39 4 -3 6 14 5 39 -3 70 -1 80 15 80 8 0 15 -5 15 -11 0 -6 7 -4
15 4 9 10 27 13 51 10 35 -5 36 -4 30 21 -3 14 -2 26 3 26 5 0 11 -12 13 -27
2 -23 7 -27 26 -25 14 2 22 -2 22 -11 0 -11 -10 -15 -34 -14 -19 0 -47 -5 -61
-13 -20 -11 -28 -11 -34 -2 -6 9 -11 9 -24 -1 -12 -8 -14 -16 -7 -27 8 -12 13
-13 30 -2 12 7 20 8 20 2 0 -5 -4 -10 -10 -10 -18 0 -10 -18 10 -23 15 -4 20
0 20 16 0 30 15 53 25 38 4 -8 11 -9 18 -3 27 21 53 19 64 -4 9 -19 7 -23 -9
-28 -21 -5 -16 -26 6 -26 29 0 37 26 20 65 -14 34 -14 39 0 54 15 14 16 14 16
-2 0 -9 -4 -17 -10 -17 -5 0 -2 -8 8 -18 16 -17 17 -17 25 5 5 13 15 23 23 23
9 0 12 -4 9 -10 -4 -7 3 -7 20 0 33 13 38 13 30 0 -3 -5 -2 -10 4 -10 5 0 11
6 14 13 3 9 9 9 26 0 28 -18 58 -16 65 2 3 9 6 1183 6 2610 l0 2595 -3810 0
-3810 0 2 -2632z m7461 -2403 c-7 -21 -13 -19 -13 6 0 11 4 18 10 14 5 -3 7
-12 3 -20z m-366 -17 c-3 -8 -6 -5 -6 6 -1 11 2 17 5 13 3 -3 4 -12 1 -19z
m67 -9 c-3 -5 -10 -7 -15 -3 -5 3 -7 10 -3 15 3 5 10 7 15 3 5 -3 7 -10 3 -15z
m-6014 -29 c-8 -5 -17 -7 -19 -4 -3 3 1 9 9 14 8 5 17 7 19 4 3 -3 -1 -9 -9
-14z m-1033 -12 c-3 -8 -6 -5 -6 6 -1 11 2 17 5 13 3 -3 4 -12 1 -19z m286 -9
c21 0 21 -1 -2 -10 -18 -7 -21 -12 -12 -23 9 -11 6 -13 -15 -13 -18 0 -22 3
-15 10 6 6 12 25 12 42 1 16 3 22 6 13 2 -10 14 -18 26 -19z m6354 9 c-3 -8
-6 -5 -6 6 -1 11 2 17 5 13 3 -3 4 -12 1 -19z m-6704 5 c-7 -2 -19 -2 -25 0
-7 3 -2 5 12 5 14 0 19 -2 13 -5z m807 -7 c0 -8 -10 -13 -24 -13 -20 0 -22 2
-13 13 16 17 37 18 37 0z m-243 -18 c-3 -8 -6 -5 -6 6 -1 11 2 17 5 13 3 -3 4
-12 1 -19z m688 13 c3 -5 1 -12 -5 -16 -5 -3 -10 1 -10 9 0 18 6 21 15 7z
m-1098 -7 c-3 -3 -12 -4 -19 -1 -8 3 -5 6 6 6 11 1 17 -2 13 -5z m964 -7 c-6
-8 -9 -16 -6 -19 3 -2 -6 -11 -20 -18 -14 -7 -25 -17 -25 -22 0 -14 -38 -9
-44 7 -3 9 0 15 9 15 8 0 15 5 15 11 0 5 5 7 10 4 6 -3 10 -1 10 4 0 6 7 11
15 11 8 0 15 5 15 10 0 6 7 10 16 10 13 0 14 -3 5 -13z m56 7 c-3 -3 -12 -4
-19 -1 -8 3 -5 6 6 6 11 1 17 -2 13 -5z m6243 2 c0 -11 -19 -15 -25 -6 -3 5 1
10 9 10 9 0 16 -2 16 -4z m-7220 -32 c0 -2 -9 -4 -20 -4 -11 0 -20 4 -20 9 0
5 9 7 20 4 11 -3 20 -7 20 -9z m323 0 c-5 -15 -53 -20 -53 -6 0 14 10 20 35
20 16 0 22 -5 18 -14z m402 0 c19 -14 19 -15 -10 -10 -17 3 -32 1 -37 -7 -6
-9 -10 -8 -18 3 -7 11 -5 17 8 22 26 10 35 9 57 -8z m5854 -14 c-22 -14 -34 2
-13 17 13 10 20 10 23 2 2 -6 -3 -15 -10 -19z m228 8 c-3 -8 -6 -5 -6 6 -1 11
2 17 5 13 3 -3 4 -12 1 -19z m63 12 c0 -5 -5 -10 -11 -10 -5 0 -7 5 -4 10 3 6
8 10 11 10 2 0 4 -4 4 -10z m490 -9 c0 -4 -8 -14 -18 -22 -17 -15 -19 -14 -19
11 0 22 4 26 19 22 10 -2 18 -7 18 -11z m-7490 -6 c0 -9 -6 -12 -15 -9 -8 4
-12 10 -9 15 8 14 24 10 24 -6z m700 5 c0 -5 -8 -10 -17 -10 -15 0 -16 2 -3
10 19 12 20 12 20 0z m230 -3 c0 -8 -3 -17 -7 -20 -9 -9 -34 13 -27 24 8 14
34 11 34 -4z m210 3 c0 -5 -7 -10 -16 -10 -8 0 -12 5 -9 10 3 6 10 10 16 10 5
0 9 -4 9 -10z m5634 1 c3 -5 -1 -11 -9 -15 -15 -6 -29 7 -18 18 9 9 21 8 27
-3z m363 -11 c1 -11 -2 -18 -8 -15 -11 7 -12 35 -1 35 4 0 8 -9 9 -20z m128
10 c3 -5 -3 -10 -14 -10 -12 0 -21 -7 -21 -15 0 -8 -4 -15 -10 -15 -14 0 -12
37 3 43 20 9 35 8 42 -3z m83 -21 c-7 -5 -24 -8 -38 -7 -23 1 -24 1 -2 5 12 2
22 11 22 20 0 13 3 13 15 3 13 -11 13 -15 3 -21z m72 14 c0 -2 -6 -11 -14 -18
-12 -12 -14 -11 -12 9 0 14 6 22 14 19 6 -3 12 -7 12 -10z m-563 -15 c-3 -8
-6 -5 -6 6 -1 11 2 17 5 13 3 -3 4 -12 1 -19z m-6660 -20 c-3 -7 -5 -2 -5 12
0 14 2 19 5 13 2 -7 2 -19 0 -25z m49 -17 c-4 -6 -14 -11 -22 -11 -12 0 -12 3
-2 20 7 11 16 16 21 11 5 -5 6 -14 3 -20z m704 4 c0 -8 -4 -15 -10 -15 -5 0
-10 7 -10 15 0 8 5 15 10 15 6 0 10 -7 10 -15z"/>
<path d="M6677 2423 c-3 -5 -5 -20 -5 -35 0 -21 3 -24 13 -15 8 7 10 16 5 21
-5 5 -6 15 -3 22 5 15 -3 20 -10 7z"/>
<path d="M6785 2410 c-3 -5 1 -10 10 -10 9 0 13 5 10 10 -3 6 -8 10 -10 10 -2
0 -7 -4 -10 -10z"/>
<path d="M6802 2375 c-19 -31 -20 -36 -7 -41 10 -4 13 -13 10 -24 -3 -10 -2
-21 4 -24 14 -9 22 21 11 48 -10 27 4 48 26 39 17 -6 18 9 2 25 -17 17 -21 16
-46 -23z"/>
<path d="M1240 2390 c0 -5 14 -17 32 -26 29 -15 30 -18 15 -29 -21 -15 -22
-35 -2 -35 8 0 15 7 15 15 0 18 11 19 29 3 11 -11 13 -9 7 12 -3 14 -6 28 -6
33 0 4 -6 7 -14 7 -8 0 -16 6 -19 13 -5 15 -57 21 -57 7z"/>
<path d="M7537 2393 c-11 -11 14 -33 37 -32 14 0 16 2 6 6 -8 3 -20 11 -26 19
-6 8 -14 11 -17 7z"/>
<path d="M488 2376 c-16 -12 -16 -14 7 -26 14 -7 28 -10 32 -7 3 4 -2 7 -11 7
-13 0 -17 6 -13 20 3 11 4 20 4 20 -1 0 -10 -7 -19 -14z"/>
<path d="M541 2374 c-12 -14 -10 -15 15 -12 15 2 29 9 32 16 5 17 -30 14 -47
-4z"/>
<path d="M690 2382 c0 -5 11 -14 25 -20 29 -14 44 2 16 17 -24 13 -41 14 -41
3z"/>
<path d="M1345 2380 c3 -5 8 -10 11 -10 2 0 4 5 4 10 0 6 -5 10 -11 10 -5 0
-7 -4 -4 -10z"/>
<path d="M6748 2383 c7 -3 16 -2 19 1 4 3 -2 6 -13 5 -11 0 -14 -3 -6 -6z"/>
<path d="M790 2370 c-23 -7 -23 -8 -3 -9 12 -1 24 -7 26 -13 3 -7 6 -3 6 10 1
12 0 22 -1 21 -2 -1 -14 -5 -28 -9z"/>
<path d="M965 2371 c-3 -5 -1 -12 5 -16 5 -3 10 1 10 9 0 18 -6 21 -15 7z"/>
<path d="M7486 2373 c-3 -3 -3 -10 0 -14 7 -12 34 -11 34 0 0 11 -26 22 -34
14z"/>
<path d="M880 2363 c-8 -2 -21 -7 -29 -9 -11 -4 -10 -8 5 -19 28 -21 42 -18
40 10 0 14 -1 25 -1 24 0 0 -7 -3 -15 -6z"/>
<path d="M206 2352 c-11 -18 7 -50 30 -55 13 -2 24 0 24 4 0 5 -7 9 -15 9 -8
0 -15 9 -15 19 0 22 -16 36 -24 23z"/>
<path d="M422 2351 c-10 -6 -10 -10 3 -21 13 -11 15 -9 15 9 0 24 0 24 -18 12z"/>
<path d="M1206 2351 c-3 -5 2 -12 12 -16 16 -6 16 -7 -2 -20 -18 -14 -18 -15
9 -25 15 -6 30 -8 33 -5 3 3 0 5 -7 5 -7 0 -9 9 -6 23 4 15 0 26 -14 34 -11 7
-23 9 -25 4z"/>
<path d="M73 2340 c2 -8 14 -16 28 -17 19 -1 20 -1 4 4 -11 3 -24 10 -28 17
-6 7 -7 6 -4 -4z"/>
<path d="M311 2334 c0 -11 3 -14 6 -6 3 7 2 16 -1 19 -3 4 -6 -2 -5 -13z"/>
<path d="M1036 2335 c4 -8 10 -15 15 -15 5 0 9 7 9 15 0 8 -7 15 -15 15 -9 0
-12 -6 -9 -15z"/>
<path d="M1110 2334 c0 -8 5 -12 10 -9 6 3 10 10 10 16 0 5 -4 9 -10 9 -5 0
-10 -7 -10 -16z"/>
<path d="M6634 2336 c-9 -10 -7 -15 6 -24 14 -9 19 -8 24 3 7 20 -16 36 -30
21z"/>
<path d="M6726 2335 c4 -8 7 -15 9 -15 2 0 5 7 9 15 3 9 0 15 -9 15 -9 0 -12
-6 -9 -15z"/>
<path d="M7303 2325 c-6 -14 -7 -27 -2 -31 7 -4 29 34 29 52 0 13 -17 0 -27
-21z"/>
<path d="M786 2332 c-3 -6 2 -16 13 -21 25 -14 41 -14 41 0 0 5 -5 7 -11 4 -6
-4 -16 1 -23 11 -9 11 -15 13 -20 6z"/>
<path d="M713 2320 c2 -9 17 -16 38 -16 31 -2 31 -1 4 3 -16 3 -34 10 -38 16
-6 8 -7 7 -4 -3z"/>
<path d="M6990 2320 c0 -5 7 -7 15 -4 8 4 15 8 15 10 0 2 -7 4 -15 4 -8 0 -15
-4 -15 -10z"/>
<path d="M7066 2316 c7 -19 27 -26 44 -16 10 6 8 11 -8 19 -28 15 -42 14 -36
-3z"/>
<path d="M7445 2320 c3 -5 8 -10 11 -10 2 0 4 5 4 10 0 6 -5 10 -11 10 -5 0
-7 -4 -4 -10z"/>
<path d="M7530 2313 c-24 -12 -24 -13 15 -13 22 0 36 4 30 8 -5 4 -12 10 -15
13 -3 3 -16 0 -30 -8z"/>
<path d="M290 2303 c0 -13 5 -23 10 -23 13 0 13 11 0 30 -8 12 -10 11 -10 -7z"/>
<path d="M606 2304 c-8 -21 -8 -24 3 -24 12 0 22 28 12 35 -5 3 -12 -2 -15
-11z"/>
<path d="M663 2303 c-18 -7 -16 -23 2 -23 8 0 15 7 15 15 0 8 -1 15 -2 14 -2
0 -9 -3 -15 -6z"/>
<path d="M889 2291 c-24 -20 -24 -20 -4 -35 30 -23 35 -20 32 19 -1 19 -3 35
-3 35 -1 0 -12 -9 -25 -19z"/>
<path d="M6987 2280 c-3 -11 -1 -20 4 -20 5 0 9 9 9 20 0 11 -2 20 -4 20 -2 0
-6 -9 -9 -20z"/>
<path d="M7163 2281 c-9 -14 -9 -22 -2 -27 15 -9 21 1 17 26 -3 21 -3 21 -15
1z"/>
<path d="M65 2260 c3 -5 10 -10 16 -10 5 0 9 5 9 10 0 6 -7 10 -16 10 -8 0
-12 -4 -9 -10z"/>
<path d="M702 2255 c-11 -12 -10 -15 3 -15 8 0 15 7 15 15 0 18 -2 18 -18 0z"/>
<path d="M1076 2263 c6 -4 14 -15 17 -23 5 -11 6 -9 4 4 -1 11 -9 21 -17 23
-10 3 -11 2 -4 -4z"/>
<path d="M1198 2263 c7 -3 16 -2 19 1 4 3 -2 6 -13 5 -11 0 -14 -3 -6 -6z"/>
<path d="M7110 2261 c0 -10 19 -25 25 -20 1 2 -3 10 -11 17 -8 7 -14 8 -14 3z"/>
<path d="M490 2250 c0 -6 7 -10 15 -10 8 0 15 2 15 4 0 2 -7 6 -15 10 -8 3
-15 1 -15 -4z"/>
<path d="M852 2240 c0 -14 2 -19 5 -12 2 6 2 18 0 25 -3 6 -5 1 -5 -13z"/>
<path d="M6946 2251 c-4 -5 -2 -20 3 -33 9 -21 10 -21 10 10 1 32 -3 39 -13
23z"/>
<path d="M7420 2234 c-17 -10 -20 -14 -8 -14 23 0 48 11 48 21 0 12 -9 10 -40
-7z"/>
<path d="M7570 2239 c0 -5 5 -7 10 -4 6 3 10 8 10 11 0 2 -4 4 -10 4 -5 0 -10
-5 -10 -11z"/>
<path d="M271 2224 c0 -11 3 -14 6 -6 3 7 2 16 -1 19 -3 4 -6 -2 -5 -13z"/>
<path d="M7298 2223 c6 -2 18 -2 25 0 6 3 1 5 -13 5 -14 0 -19 -2 -12 -5z"/>
<path d="M7071 2184 c0 -11 3 -14 6 -6 3 7 2 16 -1 19 -3 4 -6 -2 -5 -13z"/>
<path d="M631 2154 c0 -11 3 -14 6 -6 3 7 2 16 -1 19 -3 4 -6 -2 -5 -13z"/>
<path d="M1086 2135 c4 -8 7 -15 9 -15 2 0 5 7 9 15 3 9 0 15 -9 15 -9 0 -12
-6 -9 -15z"/>
</g>
</svg>
